<svg xmlns="http://www.w3.org/2000/svg" width="59.999" height="59.999" viewBox="0 0 59.999 59.999">
  <g id="Group_16" data-name="Group 16" transform="translate(-208 -43)">
    <path id="Subtraction_4" data-name="Subtraction 4" d="M-486-680a29.813,29.813,0,0,1-11.677-2.357,29.9,29.9,0,0,1-9.536-6.429,29.9,29.9,0,0,1-6.429-9.536A29.812,29.812,0,0,1-516-710a29.811,29.811,0,0,1,2.358-11.677,29.9,29.9,0,0,1,6.429-9.536,29.9,29.9,0,0,1,9.536-6.429A29.811,29.811,0,0,1-486-740a29.813,29.813,0,0,1,11.678,2.358,29.9,29.9,0,0,1,9.536,6.429,29.9,29.9,0,0,1,6.429,9.536A29.812,29.812,0,0,1-456-710a29.813,29.813,0,0,1-2.357,11.677,29.9,29.9,0,0,1-6.429,9.536,29.9,29.9,0,0,1-9.536,6.429A29.814,29.814,0,0,1-486-680Zm-12.32-42.919h0a24.437,24.437,0,0,0-3.58,2.959,23.125,23.125,0,0,0-3.2,3.981,22.634,22.634,0,0,0-2.32,4.839,17.008,17.008,0,0,0-.9,5.54,14.043,14.043,0,0,0,.7,4.56,9.862,9.862,0,0,0,2.039,3.5,8.882,8.882,0,0,0,3.3,2.239,11.977,11.977,0,0,0,4.44.78,12.294,12.294,0,0,0,4.32-.72,9.762,9.762,0,0,0,3.3-2.02,8.84,8.84,0,0,0,2.12-3.1,10.366,10.366,0,0,0,.74-3.96,9.993,9.993,0,0,0-.62-3.58,7.894,7.894,0,0,0-1.72-2.74,7.779,7.779,0,0,0-2.6-1.74,8.372,8.372,0,0,0-3.22-.62,6.866,6.866,0,0,0-2.32.36,6.229,6.229,0,0,0-1.74.94,5.67,5.67,0,0,0-1.24,1.34,11.245,11.245,0,0,0-.859,1.56l-.36-.12a12.645,12.645,0,0,1,1.38-3.74,19.681,19.681,0,0,1,2.48-3.42,30.879,30.879,0,0,1,3.54-3.341c1.352-1.1,2.9-2.277,4.6-3.5Zm25.8,22.559V-695h5.719v-5.36h3.52v-4.68h-3.52V-722.92h-7.12l-10.88,17.4v5.16Zm-25.321,1.16a4.277,4.277,0,0,1-3.119-1.1,4.222,4.222,0,0,1-1.121-3.14v-.72a4.222,4.222,0,0,1,1.121-3.14,4.277,4.277,0,0,1,3.119-1.1,4.281,4.281,0,0,1,3.12,1.1,4.222,4.222,0,0,1,1.121,3.14v.72a4.222,4.222,0,0,1-1.121,3.14A4.281,4.281,0,0,1-497.84-699.2Zm25.321-5.84H-480l7.079-11.68h.4v11.679Z" transform="translate(724 783)" fill="#f2c40f"/>
  </g>
</svg>
